<?xml version="1.0" encoding="iso-8859-1"?>
<!-- Generator: Adobe Illustrator 16.0.0, SVG Export Plug-In . SVG Version: 6.00 Build 0)  -->
<!DOCTYPE svg PUBLIC "-//W3C//DTD SVG 1.1//EN" "http://www.w3.org/Graphics/SVG/1.1/DTD/svg11.dtd">
<svg version="1.1" id="Layer_1" xmlns="http://www.w3.org/2000/svg" xmlns:xlink="http://www.w3.org/1999/xlink" x="0px" y="0px"
	 width="100px" height="100px" viewBox="0 0 100 100" style="enable-background:new 0 0 100 100;" xml:space="preserve">
<g>
	<rect y="0" style="fill:#5A74BF;" width="100" height="100"/>
	<path style="fill-rule:evenodd;clip-rule:evenodd;fill:#FFFFFF;" d="M25.844,63.34c2.662,3.455,6.287,5.385,10.366,6.701
		c-1.299,1.623-2.552,3.205-3.837,4.764c-0.123,0.15-0.441,0.199-0.667,0.195c-4.949-0.09-9.547-1.422-13.604-4.254
		c-3.5-2.443-4.917-5.965-4.508-10.199c0.673-6.961,2.305-13.697,4.757-20.246c3.313-8.847,11.568-14.908,20.977-15.299
		c0.417-0.018,0.844,0.236,1.243,0.507c-4.646,1.3-9.066,2.927-13.088,5.507c-0.883,0.566-1.719,1.205-2.551,1.88
		c16.436-7.266,32.807-7.198,49.161,0.24c-4.389-3.444-9.427-5.547-14.73-7.144c0.39-0.739,0.93-0.998,1.721-0.921
		c9.854,0.958,16.744,5.988,20.505,15.128c2.607,6.338,4.143,12.978,4.818,19.798c0.44,4.447-1.236,8.016-4.954,10.479
		c-4.09,2.711-8.649,4.055-13.561,4.203c-0.513,0.016-0.875-0.102-1.208-0.523c-1.127-1.436-2.296-2.836-3.541-4.363
		c4.245-1.352,8.01-3.234,10.775-6.732c-0.24,0.135-0.484,0.264-0.722,0.406c-5.218,3.119-10.764,5.318-16.834,6.086
		c-5.495,0.695-10.906,0.193-16.252-1.131c-4.794-1.188-9.475-2.717-13.905-4.939C26.089,63.426,25.964,63.387,25.844,63.34z
		 M67.646,53.551c-0.009-3.604-2.947-6.673-6.386-6.67c-3.414,0.003-6.379,3.054-6.396,6.582c-0.018,3.607,2.992,6.74,6.446,6.705
		C64.747,60.135,67.654,57.098,67.646,53.551z M44.789,53.543c-0.004-3.567-2.988-6.67-6.406-6.662
		c-3.427,0.009-6.367,3.045-6.374,6.582c-0.006,3.641,2.96,6.738,6.421,6.707C41.823,60.137,44.792,57.043,44.789,53.543z"/>
</g>
</svg>
