<?xml version="1.0" encoding="iso-8859-1"?>
<!-- Generator: Adobe Illustrator 16.0.0, SVG Export Plug-In . SVG Version: 6.00 Build 0)  -->
<!DOCTYPE svg PUBLIC "-//W3C//DTD SVG 1.1//EN" "http://www.w3.org/Graphics/SVG/1.1/DTD/svg11.dtd">
<svg version="1.1" id="Layer_1" xmlns="http://www.w3.org/2000/svg" xmlns:xlink="http://www.w3.org/1999/xlink" x="0px" y="0px"
	 width="100px" height="100px" viewBox="0 0 100 100" style="enable-background:new 0 0 100 100;" xml:space="preserve">
<g>
	<rect style="fill:#03A9F4;" width="100" height="100"/>
	<path style="fill-rule:evenodd;clip-rule:evenodd;fill:#FFFFFF;" d="M19.305,69.365c6.906,0.619,12.983-1.039,18.515-5.184
		c-5.771-0.523-9.611-3.422-11.765-8.787c1.909,0.196,3.688,0.265,5.446-0.253c-2.852-0.761-5.24-2.226-7.075-4.534
		c-1.833-2.306-2.74-4.938-2.748-7.907c0.909,0.342,1.764,0.729,2.656,0.979c0.897,0.249,1.833,0.362,2.798,0.451
		c-2.579-2.021-4.345-4.528-5.054-7.721c-0.707-3.187-0.204-6.187,1.398-9.086c6.83,8.043,15.437,12.464,25.893,13.185
		c-0.042-1.286-0.163-2.517-0.108-3.74c0.243-5.575,4.617-10.55,10.112-11.533c4.343-0.776,8.121,0.379,11.316,3.417
		c0.265,0.25,0.485,0.314,0.846,0.232c2.436-0.553,4.752-1.409,6.932-2.63c0.138-0.076,0.28-0.143,0.545-0.278
		c-0.981,2.938-2.752,5.11-5.191,6.806c2.357-0.233,4.582-0.882,6.742-1.779c0.045,0.049,0.09,0.097,0.134,0.146
		c-0.986,1.161-1.919,2.374-2.976,3.467c-0.9,0.932-1.955,1.713-2.918,2.587c-0.176,0.161-0.342,0.451-0.338,0.677
		c0.18,9.272-2.711,17.499-8.589,24.625c-5.759,6.981-13.228,10.988-22.198,12.155c-8.448,1.1-16.373-0.441-23.703-4.847
		C19.791,69.701,19.618,69.575,19.305,69.365z"/>
</g>
</svg>
