<?xml version="1.0" encoding="iso-8859-1"?>
<!-- Generator: Adobe Illustrator 16.0.0, SVG Export Plug-In . SVG Version: 6.00 Build 0)  -->
<!DOCTYPE svg PUBLIC "-//W3C//DTD SVG 1.1//EN" "http://www.w3.org/Graphics/SVG/1.1/DTD/svg11.dtd">
<svg version="1.1" id="Layer_1" xmlns="http://www.w3.org/2000/svg" xmlns:xlink="http://www.w3.org/1999/xlink" x="0px" y="0px"
	 width="100px" height="100px" viewBox="0 0 100 100" style="enable-background:new 0 0 100 100;" xml:space="preserve">
<g>
	<rect style="fill:#0E508C;" width="100" height="100"/>
	<path style="fill-rule:evenodd;clip-rule:evenodd;fill:#FFFFFF;" d="M82.501,48.097c0,1.27,0,2.539,0,3.808
		c-0.041,0.225-0.087,0.447-0.117,0.674c-0.154,1.17-0.246,2.355-0.467,3.516c-1.229,6.473-4.177,12.066-8.809,16.74
		c-4.854,4.904-10.689,7.99-17.507,9.166c-1.225,0.211-2.465,0.336-3.697,0.5c-1.27,0-2.539,0-3.809,0
		c-0.857-0.102-1.717-0.188-2.572-0.309c-6.409-0.906-12.074-3.467-16.925-7.75c-5.712-5.043-9.285-11.322-10.6-18.848
		c-0.214-1.221-0.335-2.461-0.5-3.689c0-1.269,0-2.538,0-3.808c0.039-0.225,0.087-0.447,0.116-0.671
		c0.154-1.173,0.245-2.358,0.466-3.517c1.23-6.474,4.177-12.067,8.809-16.743c4.855-4.903,10.692-7.99,17.509-9.165
		c1.225-0.211,2.464-0.336,3.697-0.5c1.27,0,2.539,0,3.809,0c0.857,0.103,1.717,0.189,2.572,0.31
		c6.409,0.905,12.073,3.464,16.923,7.748c5.714,5.045,9.286,11.322,10.602,18.85C82.214,45.63,82.336,46.867,82.501,48.097z
		 M48.065,38.516c-3.692-0.256-7.312-0.508-10.933-0.761c-0.756,2.437-1.564,9.22-1.282,10.293c4.07,0,8.14,0,12.215,0
		C48.065,44.838,48.065,41.671,48.065,38.516z M51.936,48.058c4.115,0,8.184,0,12.304,0c-0.094-3.484-0.533-6.878-1.325-10.22
		c-3.677,0.232-7.313,0.461-10.979,0.692C51.936,41.674,51.936,44.836,51.936,48.058z M33.147,37.088
		c-0.008-0.002-0.107-0.028-0.207-0.051c-2.342-0.552-4.687-1.088-7.021-1.672c-0.412-0.103-0.591-0.038-0.795,0.321
		c-1.496,2.626-2.592,5.406-3.176,8.373c-0.259,1.313-0.417,2.645-0.627,4.008c3.621,0,7.082,0,10.436,0
		C32.223,44.394,32.683,40.76,33.147,37.088z M66.85,62.652c2.564,0.602,5.223,1.227,7.902,1.855
		c2.26-3.869,3.56-8.043,3.849-12.553c-3.56,0-7.033,0-10.372,0C67.764,55.553,67.31,59.088,66.85,62.652z M68.238,48.06
		c3.388,0,6.846,0,10.373,0c-0.317-4.535-1.595-8.719-3.857-12.551c-2.701,0.604-5.348,1.196-7.874,1.759
		C67.332,40.859,67.781,44.432,68.238,48.06z M51.948,51.934c0,3.168,0,6.285,0,9.357c3.677,0.254,7.308,0.504,10.945,0.752
		c0.79-3.328,1.234-6.68,1.339-10.109C60.104,51.934,56.051,51.934,51.948,51.934z M35.793,51.938
		c-0.074,2.396,0.74,8.375,1.344,10.031c3.65-0.229,7.287-0.457,10.907-0.682c0-3.127,0-6.242,0-9.35
		C43.939,51.938,39.887,51.938,35.793,51.938z M21.425,51.939c0,0.158-0.009,0.283,0.001,0.404
		c0.322,4.166,1.525,8.066,3.556,11.719c0.201,0.359,0.421,0.293,0.729,0.221c2.177-0.506,4.357-0.998,6.536-1.494
		c0.339-0.076,0.678-0.152,0.889-0.197c-0.459-3.598-0.907-7.104-1.36-10.652C28.402,51.939,24.928,51.939,21.425,51.939z
		 M61.937,34.09c-0.757-1.697-1.366-3.229-2.104-4.693c-1.15-2.28-2.595-4.36-4.594-5.997c-0.978-0.799-2.035-1.459-3.283-1.758
		c0,4.361,0,8.662,0,13.042C55.254,34.487,58.496,34.294,61.937,34.09z M38.082,65.723c0.732,1.654,1.331,3.166,2.059,4.613
		c1.137,2.262,2.566,4.326,4.528,5.969c1.001,0.842,2.096,1.516,3.382,1.842c0-4.342,0-8.625,0-13.018
		C44.757,65.324,41.512,65.52,38.082,65.723z M48.055,34.672c0-4.415,0-8.711,0-13.053c-1.743,0.497-3.114,1.492-4.329,2.723
		c-2.16,2.187-3.592,4.835-4.766,7.639c-0.264,0.632-0.489,1.28-0.775,2.033C41.533,34.237,44.756,34.453,48.055,34.672z
		 M51.95,65.139c0,4.445,0,8.719,0,13.119c5.622-2.344,7.795-7.262,9.897-12.473C58.463,65.564,55.229,65.352,51.95,65.139z
		 M34.204,66.268c-2.188,0.461-4.427,0.932-6.781,1.428c3.338,4.145,7.31,7.129,12.119,9.02c-1.013-1.689-2.086-3.281-2.953-4.98
		C35.708,70.012,35.029,68.186,34.204,66.268z M60.418,76.65c4.781-1.807,8.728-4.73,12.038-8.811
		c-2.349-0.518-4.561-1.006-6.805-1.498C64.399,70.092,62.774,73.549,60.418,76.65z M60.576,23.391
		c2.308,3.077,3.907,6.499,5.123,10.187c2.263-0.476,4.451-0.937,6.76-1.422C69.16,28.117,65.275,25.208,60.576,23.391z
		 M39.411,23.398c-4.643,1.801-8.489,4.655-11.732,8.588c2.283,0.504,4.454,0.982,6.668,1.47
		C35.551,29.79,37.149,26.432,39.411,23.398z"/>
</g>
</svg>
